<svg xmlns="http://www.w3.org/2000/svg" fill="none" viewBox="0 0 24 24" id="Home-1--Streamline-Plump-Remix" height="24" width="24"><desc>Home 1 Streamline Icon: https://streamlinehq.com</desc><g id="home-1--home-house-roof-shelter"><path id="Union" fill="#000000" fill-rule="evenodd" d="M13.81365 1.134835c-1.15425 -0.513115 -2.473 -0.513115 -3.6272 0C6.45055 2.79564 3.62572 4.97237 2.16308 6.2319c-0.942235 0.81135 -1.449035 1.96385 -1.51142 3.15515C0.583135 10.6956 0.5 12.7446 0.5 14.98835c0 1.7262 0.049205 3.3905 0.102995 4.69485 0.083495 2.02465 1.696525 3.62845 3.72101 3.69765 1.741145 0.0595 4.319795 0.1189 7.676045 0.1189 3.3562 0 5.9348 -0.0594 7.67595 -0.1189 2.02455 -0.0692 3.63755 -1.67305 3.72105 -3.69775 0.05375 -1.3043 0.10295 -2.96855 0.10295 -4.69475 0 -2.2437 -0.0831 -4.2927 -0.1516 -5.60125 -0.06235 -1.1913 -0.5692 -2.34385 -1.51145 -3.15525 -1.46265 -1.25952 -4.28745 -3.436225 -8.0233 -5.097015Zm-2.81475 1.82755c0.637 -0.28318 1.3653 -0.28318 2.0023 0C16.5 4.517795 19.15945 6.5655 20.5319 7.7474c0.4906 0.4224 0.78265 1.0457 0.81925 1.74425 0.06735 1.2868 0.14885 3.2989 0.14885 5.4967 0 1.6906 -0.04825 3.32595 -0.10125 4.61235 -0.04045 0.981 -0.81365 1.7479 -1.79105 1.7813 -1.7192 0.05875 -4.27505 0.11775 -7.60765 0.11775 -3.3327 0 -5.8885 -0.059 -7.607725 -0.11775 -0.97739 -0.0334 -1.750575 -0.80025 -1.791025 -1.78125C2.548245 18.3143 2.5 16.67895 2.5 14.98835c0 -2.19785 0.08154 -4.2099 0.148925 -5.4967 0.03658 -0.69855 0.328655 -1.3218 0.819205 -1.74425C4.840595 6.56555 7.5 4.51781 10.9989 2.962385ZM8 17.24435c-0.69035 0 -1.25 0.55965 -1.25 1.25s0.55965 1.25 1.25 1.25h8c0.69035 0 1.25 -0.55965 1.25 -1.25s-0.55965 -1.25 -1.25 -1.25H8Z" clip-rule="evenodd" stroke-width="0.5">
</path></g></svg>